<svg width="33" height="32" viewBox="0 0 33 32" fill="none" xmlns="http://www.w3.org/2000/svg">
<path fill-rule="evenodd" clip-rule="evenodd" d="M11.6826 16.8079V11.3955H16.0166C18.5537 11.3955 20.6302 13.4718 20.6302 15.9915C20.6302 18.5282 18.5537 20.6045 16.0166 20.6045H3.79719V3.79944H16.0166C22.721 3.79944 28.2077 9.28813 28.2077 15.9915C28.2077 22.7119 22.721 28.2006 16.0166 28.2006H15.4797V32H16.0166C24.8088 32 32.0049 24.8023 32.0049 15.9915C32.0049 7.19774 24.8088 0 16.0166 0H0V24.404H7.88538V32H11.6826V24.404H16.0166C20.6444 24.404 24.4105 20.6215 24.4105 15.9915C24.4105 11.3785 20.6444 7.59605 16.0166 7.59605H7.88538V16.8079H11.6826ZM3.79719 28.2006H0V32H3.79719V28.2006Z" fill="white"/>
</svg>
