<svg width="224" height="32" viewBox="0 0 224 32" fill="none" xmlns="http://www.w3.org/2000/svg">
<path fill-rule="evenodd" clip-rule="evenodd" d="M11.6826 16.8079V11.3955H16.0166C18.5537 11.3955 20.6302 13.4718 20.6302 15.9915C20.6302 18.5282 18.5537 20.6045 16.0166 20.6045H3.79719V3.79944H16.0166C22.721 3.79944 28.2077 9.28813 28.2077 15.9915C28.2077 22.7119 22.721 28.2006 16.0166 28.2006H15.4797V32H16.0166C24.8088 32 32.0049 24.8023 32.0049 15.9915C32.0049 7.19774 24.8088 0 16.0166 0H0V24.404H7.88538V32H11.6826V24.404H16.0166C20.6444 24.404 24.4105 20.6215 24.4105 15.9915C24.4105 11.3785 20.6444 7.59605 16.0166 7.59605H7.88538V16.8079H11.6826ZM3.79719 28.2006H0V32H3.79719V28.2006Z" fill="white"/>
<path d="M44.6294 22.6836H50.0652C54.4021 22.6836 57.3065 19.9181 57.3065 15.8164C57.3065 11.7373 54.4021 8.95197 50.0652 8.95197H44.6294V22.6836ZM47.7513 19.8192V11.8164H49.9664C52.4385 11.8164 54.1082 13.4039 54.1082 15.8164C54.1082 18.2316 52.4385 19.8192 50.0059 19.8192H47.7513Z" fill="white"/>
<path d="M58.9883 22.6836H62.3221L63.2432 20.3107H68.6988L69.6198 22.6836H72.9565L67.5009 8.95197H64.4411L58.9883 22.6836ZM64.0484 17.8587L65.9724 12.8361L67.9134 17.8587H64.0484Z" fill="white"/>
<path d="M78.7589 22.6836H81.8781V11.8757H86.2346V8.95197H74.4023V11.8757H78.7589V22.6836Z" fill="white"/>
<path d="M87.6826 22.6836H91.0165L91.9375 20.3107H97.3931L98.3142 22.6836H101.651L96.1952 8.95197H93.1354L87.6826 22.6836ZM92.7427 17.8587L94.6667 12.8361L96.6077 17.8587H92.7427Z" fill="white"/>
<path d="M112.749 22.6836H115.868V11.8757H120.225V8.95197H108.393V11.8757H112.749V22.6836Z" fill="white"/>
<path d="M129.657 22.9576C133.955 22.9576 136.995 20.0169 136.995 15.8163C136.995 11.6186 133.955 8.67792 129.657 8.67792C125.36 8.67792 122.34 11.6186 122.34 15.8163C122.34 20.0169 125.36 22.9576 129.657 22.9576ZM125.518 15.8163C125.518 13.3446 127.225 11.6384 129.657 11.6384C132.11 11.6384 133.796 13.3446 133.796 15.8163C133.796 18.2881 132.11 19.9971 129.657 19.9971C127.225 19.9971 125.518 18.2881 125.518 15.8163Z" fill="white"/>
<path d="M146.682 22.9576C150.979 22.9576 154.019 20.0169 154.019 15.8163C154.019 11.6186 150.979 8.67792 146.682 8.67792C142.384 8.67792 139.364 11.6186 139.364 15.8163C139.364 20.0169 142.384 22.9576 146.682 22.9576ZM142.543 15.8163C142.543 13.3446 144.249 11.6384 146.682 11.6384C149.134 11.6384 150.821 13.3446 150.821 15.8163C150.821 18.2881 149.134 19.9971 146.682 19.9971C144.249 19.9971 142.543 18.2881 142.543 15.8163Z" fill="white"/>
<path d="M157.191 22.6836H166.317V19.7599H160.313V8.95197H157.191V22.6836Z" fill="white"/>
<path d="M174.471 22.6836H180.926C183.712 22.6836 185.597 21.1525 185.597 18.839C185.597 17.3672 184.831 16.1893 183.537 15.6215C184.577 15.0141 185.184 13.935 185.184 12.6384C185.184 10.3842 183.399 8.95197 180.613 8.95197H174.471V22.6836ZM177.553 20.2119V16.9152H180.455C181.692 16.9152 182.398 17.5254 182.398 18.565C182.398 19.6045 181.692 20.2119 180.455 20.2119H177.553ZM177.553 14.5424V11.4237H180.141C181.339 11.4237 182.006 11.9717 182.006 12.9717C182.006 13.9746 181.339 14.5424 180.141 14.5424H177.553Z" fill="white"/>
<path d="M188.671 22.6836H197.912V20.0339H191.773V17.0339H197.167V14.4237H191.773V11.5791H197.698V8.95197H188.671V22.6836Z" fill="white"/>
<path d="M201.243 22.6836H210.369V19.7599H204.365V8.95197H201.243V22.6836Z" fill="white"/>
<path d="M216.524 22.6836H219.643V11.8757H224V8.95197H212.167V11.8757H216.524V22.6836Z" fill="white"/>
</svg>
