<svg width="20" height="24" viewBox="0 0 20 24" fill="none" xmlns="http://www.w3.org/2000/svg">
<path d="M17.4545 2.18182V21.8182H10.9091V18H8.72727V21.8182H2.18182V2.18182H17.4545ZM13.0909 6.54545H15.2727V4.36364H13.0909V6.54545ZM8.72727 6.54545H10.9091V4.36364H8.72727V6.54545ZM4.36364 6.54545H6.54545V4.36364H4.36364V6.54545ZM13.0909 10.9091H15.2727V8.72727H13.0909V10.9091ZM8.72727 10.9091H10.9091V8.72727H8.72727V10.9091ZM4.36364 10.9091H6.54545V8.72727H4.36364V10.9091ZM13.0909 15.2727H15.2727V13.0909H13.0909V15.2727ZM8.72727 15.2727H10.9091V13.0909H8.72727V15.2727ZM4.36364 15.2727H6.54545V13.0909H4.36364V15.2727ZM13.0909 19.6364H15.2727V17.4545H13.0909V19.6364ZM4.36364 19.6364H6.54545V17.4545H4.36364V19.6364ZM19.6364 0H0V24H19.6364V0Z" fill="#EA4335"/>
</svg>
